<svg xmlns="http://www.w3.org/2000/svg" id="Layer_2" viewBox="0 0 747.87 128.57"><defs><style>.cls-1{fill:#383242;}.cls-1,.cls-2{stroke-width:0px;}.cls-2{fill:#683790;}</style></defs><g id="Layer_1-2"><path class="cls-2" d="m109.74,18.83C97.6,6.69,81.46,0,64.29,0S30.97,6.69,18.83,18.83C6.69,30.97,0,47.11,0,64.29s6.69,33.31,18.83,45.46c12.14,12.14,28.29,18.83,45.46,18.83s33.31-6.69,45.46-18.83c12.14-12.14,18.83-28.29,18.83-45.46s-6.69-33.31-18.83-45.46Zm-53-.46c2.48-.41,5.01-.61,7.54-.61,2.92,0,5.84.27,8.68.81,8.38,1.59,16.16,5.48,22.5,11.26,5.83,5.32,10.2,12,12.7,19.42h-16.39c-3.85-7.13-10.41-12.57-18.13-14.99l-1.82-.57v42.38h-15.08V18.37Zm51.97,58.71c-2.38,8.13-6.96,15.46-13.27,21.2-6.34,5.77-14.11,9.66-22.49,11.25-2.84.54-5.76.81-8.68.81s-5.84-.27-8.68-.81c-8.38-1.59-16.15-5.48-22.49-11.25-6.3-5.74-10.89-13.07-13.27-21.21-.68-2.33-1.18-4.72-1.49-7.14h15.26c.54,2.84,1.47,5.58,2.78,8.17,3.78,7.5,10.53,13.23,18.52,15.74,3.02.95,6.17,1.43,9.36,1.43s6.34-.48,9.36-1.43c7.99-2.51,14.74-8.25,18.52-15.74,1.31-2.59,2.24-5.33,2.78-8.17h15.26c-.31,2.42-.81,4.82-1.49,7.14Z"></path><path class="cls-1" d="m190.59,21.44l-32.77,83.42h16.81l6.06-15.83h38.46l6.06,15.83h16.81l-32.77-83.42h-18.68Zm24.15,53.93h-29.62l14.81-39.92,14.81,39.92Z"></path><path class="cls-1" d="m280.95,42.72c-9.06,0-16.4,4.45-20.57,8.91v-7.42h-13.9v60.66h13.9v-41.99c2.67-3.6,8.12-7.73,14.88-7.73,7.88,0,11.54,3.79,11.54,11.92v37.81h13.9v-42.51c0-12.84-6.83-19.63-19.75-19.63Z"></path><path class="cls-1" d="m341.81,55.13c5.63,0,10.13,2.31,13.36,6.86l.3.42,9.21-8.55-.24-.33c-5.31-7.18-13.13-10.82-23.25-10.82-18.18,0-31.38,13.35-31.38,31.75,0,8.95,3.12,17.06,8.77,22.85,5.69,5.82,13.72,9.03,22.61,9.03,10.12,0,17.94-3.64,23.25-10.82l.24-.33-9.21-8.54-.3.41c-3.32,4.55-7.82,6.86-13.36,6.86-10.53,0-17.61-7.82-17.61-19.46s7.08-19.34,17.61-19.34Z"></path><path class="cls-1" d="m406.5,42.72c-9.13,0-16.64,4.61-20.7,8.91v-30.19h-13.9v83.42h13.9v-41.99c2.78-3.6,8.3-7.74,14.88-7.74,8.07,0,11.67,3.6,11.67,11.67v38.06h13.9v-42.76c0-12.68-6.83-19.38-19.75-19.38Z"></path><path class="cls-1" d="m466.5,42.72c-9.17,0-17.04,3.25-22.77,9.39-5.39,5.79-8.36,13.73-8.36,22.36s2.97,16.67,8.36,22.47c5.72,6.15,13.59,9.41,22.77,9.41s17.2-3.25,22.92-9.41c5.37-5.78,8.33-13.76,8.33-22.47s-2.96-16.59-8.33-22.36c-5.73-6.14-13.65-9.39-22.92-9.39Zm0,12.41c11.59,0,16.86,10.02,16.86,19.34s-5.28,19.46-16.86,19.46-16.74-10.09-16.74-19.46c0-13.29,8.68-19.34,16.74-19.34Z"></path><path class="cls-1" d="m520.76,52.17v-7.97h-13.9v60.66h13.9v-41.02c2.55-3.99,9.6-7.59,14.88-7.59,1.57,0,2.91.12,3.98.36l.55.12v-13.89h-.45c-6.84,0-14,3.55-18.97,9.33Z"></path><polygon class="cls-1" points="591.76 54.34 591.76 44.2 543.97 44.2 543.97 56.49 573.07 56.49 543.97 94.48 543.97 104.86 592.26 104.86 592.26 92.69 562.42 92.69 591.76 54.34"></polygon><path class="cls-1" d="m659.63,71.38c0,6.44-1.81,11.78-5.24,15.43-3.59,3.82-8.75,5.76-15.33,5.76-13.15,0-20.7-7.72-20.7-21.19V21.44h-15.51v50.43c0,10.39,3.11,19.01,9.01,24.94,6.29,6.33,15.44,9.54,27.2,9.54,22.93,0,36.08-12.61,36.08-34.6V21.44h-15.51v49.93Z"></path><path class="cls-1" d="m720.94,42.72c-7.29,0-14.04,3.19-18.72,8.8v-7.31h-13.9v83.42h13.9v-30.19c4.77,5.76,11.37,8.92,18.72,8.92,7.85,0,14.56-2.94,19.38-8.49,4.94-5.69,7.55-13.77,7.55-23.38,0-19.29-10.57-31.75-26.93-31.75Zm12.53,31.75c0,11.64-6.58,19.46-16.37,19.46-5.55,0-11.92-3.31-14.88-7.72v-23.35c2.89-4.41,9.26-7.72,14.88-7.72,9.79,0,16.37,7.77,16.37,19.34Z"></path></g></svg>